PathFileType	4	(X/Y/Z)	8_coords_data.trc
DataRate	CameraRate	NumFrames	NumMarkers	Units	OrigDataRate	OrigDataStartFrame	OrigNumFrames
30.0	30.0	7	21	m	30.0	45	55
Frame#	Time	THUMB_TIP	THUMB_IP	THUMB_MCP	THUMB_CMC	INDEX_TIP	INDEX_DIP	INDEX_PIP	INDEX_MCP	MIDDLE_TIP	MIDDLE_DIP	MIDDLE_PIP	MIDDLE_MCP	RING_TIP	RING_DIP	RING_PIP	RING_MCP	PINKY_TIP	PINKY_DIP	PINKY_PIP	PINKY_MCP	WRIST
X1	Y1	Z1	X2	Y2	Z2	X3	Y3	Z3	X4	Y4	Z4	X5	Y5	Z5	X6	Y6	Z6	X7	Y7	Z7	X8	Y8	Z8	X9	Y9	Z9	X10	Y10	Z10	X11	Y11	Z11	X12	Y12	Z12	X13	Y13	Z13	X14	Y14	Z14	X15	Y15	Z15	X16	Y16	Z16	X17	Y17	Z17	X18	Y18	Z18	X19	Y19	Z19	X20	Y20	Z20	X21	Y21	Z21
44	1.4666666666666666	-0.010493800163269043	-0.08109259796142577	1.01025	-0.013795000076293945	-0.06211589813232422	1.02875	-0.018468399047851563	-0.04348189926147461	1.0477099609375	-0.021105100631713867	-0.014141500473022461	1.0616800537109374	-0.00781125020980835	-0.049013999938964846	0.9311630249023437	-0.011028599739074708	-0.04503670120239258	0.9528419799804687	-0.01695330047607422	-0.04044229888916016	0.9734459838867188	-0.024348400115966798	-0.030248899459838868	1.00802001953125	-0.004455780029296875	-0.01614929962158203	0.915969970703125	-0.009199489593505859	-0.01547249984741211	0.9399849853515625	-0.018571399688720704	-0.013477499961853028	0.9657990112304687	-0.02661269950866699	-0.009652620315551757	1.002469970703125	0.0007743809819221491	0.009867409706115722	0.9257420043945312	-0.007489459991455078	0.010286399841308594	0.9475330200195312	-0.01735029983520508	0.01032960033416748	0.9709019775390625	-0.022944799423217775	0.009104000091552735	1.0046400146484376	0.00305839991569519	0.036390800476074216	0.9521129760742187	-0.004635089874267578	0.03365919876098633	0.9705460205078125	-0.011348699569702149	0.03064929962158203	0.9862949829101563	-0.01723509979248047	0.025322099685668946	1.010780029296875	-0.04486669921875	0.013742400169372558	1.07327001953125
45	1.5	-0.011210100173950195	-0.0815802001953125	1.0104000244140625	-0.014267900466918945	-0.0624463005065918	1.028800048828125	-0.018737499237060546	-0.043682998657226565	1.047719970703125	-0.02126409912109375	-0.014329400062561035	1.0615400390625	-0.008181639671325684	-0.04896480178833008	0.9309860229492187	-0.011388299942016601	-0.04508530044555664	0.9526530151367187	-0.017330999374389647	-0.04056179809570312	0.973344970703125	-0.024639699935913088	-0.030501100540161134	1.0080599975585938	-0.004403510093688965	-0.016741899490356444	0.9160349731445312	-0.009277859687805175	-0.015962300300598146	0.9399840087890625	-0.018801900863647462	-0.013938099861145019	0.9657109985351563	-0.02681480026245117	-0.009954299926757813	1.0024099731445313	0.000274300009012222	0.009420180320739746	0.9256309814453125	-0.007988510131835937	0.009864469528198243	0.9474099731445312	-0.017871599197387695	0.009996879577636718	0.9709000244140625	-0.023209800720214845	0.008790929794311524	1.0045599975585937	0.002698420047760009	0.0361797981262207	0.9519530029296875	-0.00495274019241333	0.03342010116577149	0.970364013671875	-0.011656000137329101	0.030387699127197267	0.9861530151367187	-0.017479400634765625	0.0250216007232666	1.0106900024414063	-0.04497800064086914	0.01354740047454834	1.0730699462890625
46	1.5333333333333334	-0.011252900123596192	-0.08179620361328124	1.0103099975585939	-0.01428689956665039	-0.06266019821166992	1.028699951171875	-0.01878529930114746	-0.04386640167236328	1.047550048828125	-0.021402200698852538	-0.014487099647521973	1.06143994140625	-0.008175029754638671	-0.048616500854492185	0.9307670288085937	-0.011468199729919434	-0.04488119888305664	0.952447998046875	-0.017440799713134766	-0.040503299713134766	0.9731820068359375	-0.024772499084472658	-0.03068440055847168	1.007969970703125	-0.004596640110015869	-0.016822900772094727	0.91589501953125	-0.009489769935607911	-0.016078399658203124	0.9398099975585937	-0.01899729919433594	-0.014041199684143066	0.9655819702148437	-0.027058500289916992	-0.010155799865722657	1.0022899780273438	1.0400399565696002e-05	0.009248120307922363	0.925364013671875	-0.008228619575500489	0.009715180397033691	0.9472579956054688	-0.018090299606323242	0.009790650367736816	0.970677978515625	-0.02345549964904785	0.008592599868774415	1.004469970703125	0.0023745698928833007	0.03670399856567383	0.951947998046875	-0.005279439926147461	0.033709201812744144	0.9703610229492188	-0.011985300064086914	0.030478099822998046	0.9861129760742188	-0.017749900817871093	0.02480550003051758	1.0105900268554688	-0.0452156982421875	0.013365300178527832	1.072949951171875
47	1.5666666666666667	-0.011262399673461914	-0.0818009033203125	1.0101799926757813	-0.01434809970855713	-0.06272819900512695	1.0286099853515625	-0.018756200790405273	-0.04388150024414063	1.0474000244140624	-0.021383399963378905	-0.014486300468444823	1.061239990234375	-0.008891050338745116	-0.04885549926757812	0.930572998046875	-0.012271599769592285	-0.045137298583984374	0.952156005859375	-0.018183599472045897	-0.04072570037841797	0.9728829956054688	-0.025089099884033204	-0.030763999938964844	1.00772998046875	-0.005364739894866943	-0.017057600021362303	0.915614990234375	-0.010234399795532227	-0.016287099838256835	0.9395490112304687	-0.01967799949645996	-0.014230500221252442	0.9653280029296875	-0.02741349983215332	-0.010243499755859375	1.0021500244140624	-0.0006802219748497	0.008979530334472656	0.9251090087890625	-0.00885027027130127	0.009458040237426758	0.9470079956054688	-0.018605899810791016	0.009568889617919922	0.9704520263671875	-0.02372920036315918	0.008486729621887207	1.004239990234375	0.0016407500505447382	0.037215301513671875	0.951791015625	-0.005907740116119385	0.034018699645996096	0.9701430053710938	-0.012493900299072266	0.030649700164794923	0.9858800048828125	-0.018086900711059572	0.024753400802612305	1.0102899780273438	-0.045349700927734375	0.013390999794006347	1.0729100341796876
48	1.6	-0.011069600105285644	-0.08163829803466797	1.0098499755859376	-0.014377900123596191	-0.06272880172729492	1.0283800048828124	-0.018830900192260743	-0.04398960113525391	1.04718994140625	-0.021449399948120118	-0.014628199577331543	1.06106005859375	-0.00938949966430664	-0.049194000244140626	0.9304439697265625	-0.012866900444030762	-0.045361400604248044	0.9520640258789063	-0.018803800582885742	-0.04090769958496094	0.9727769775390624	-0.025363199234008788	-0.03091950035095215	1.0076300048828124	-0.005513189792633056	-0.01710260009765625	0.9155170288085938	-0.010483200073242188	-0.01633609962463379	0.9394509887695313	-0.020059099197387697	-0.014306500434875488	0.9651849975585938	-0.027651100158691405	-0.010388699531555176	1.0020700073242188	-0.0009484739899635311	0.00888467025756836	0.925114990234375	-0.009196399688720703	0.009371809959411621	0.9468330078125	-0.019072399139404297	0.009495039939880372	0.970333984375	-0.024033700942993164	0.008300649642944335	1.0040700073242188	0.0013314199447631832	0.037207298278808594	0.9516480102539062	-0.006238900184631348	0.03395930099487305	0.9699730224609375	-0.012839200019836426	0.03056089973449707	0.9856929931640624	-0.018319599151611327	0.024575599670410155	1.0100900268554687	-0.045424999237060545	0.013222700119018554	1.0728399658203125
49	1.6333333333333333	-0.011103899955749511	-0.08172689819335938	1.009719970703125	-0.01437969970703125	-0.06287400054931641	1.02825	-0.01891580009460449	-0.04413130187988281	1.0471099853515624	-0.021571399688720704	-0.014786399841308594	1.060969970703125	-0.009308090209960937	-0.049096298217773435	0.9303270263671874	-0.012927499771118164	-0.045346500396728516	0.9519630126953125	-0.01895159912109375	-0.04094770050048828	0.9726640014648438	-0.025616399765014647	-0.031072500228881837	1.0075499877929688	-0.005609560012817383	-0.01730660057067871	0.9154409790039062	-0.0106427001953125	-0.01653879928588867	0.9393319702148437	-0.020267900466918946	-0.01450059986114502	0.9651079711914062	-0.027840599060058594	-0.01050119972229004	1.0019600219726563	-0.001014320015907287	0.008866129875183105	0.9251099853515625	-0.009474869728088378	0.009340760231018066	0.9467540283203125	-0.019405899047851564	0.009449990272521972	0.9701010131835938	-0.024270900726318358	0.008176600456237793	1.0039299926757812	0.001017580032348632	0.037428901672363284	0.9515440063476562	-0.0065178399085998534	0.03404270172119141	0.9698489990234375	-0.013100600242614746	0.03056369972229004	0.98552197265625	-0.018569099426269532	0.024448400497436525	1.0099500122070313	-0.04543460083007812	0.013036000251770019	1.0726800537109376
50	1.6666666666666667	-0.01125	-0.08181490325927734	1.0095499877929688	-0.014579099655151367	-0.0629911003112793	1.02818994140625	-0.018993000030517578	-0.04423270034790039	1.047	-0.021618099212646485	-0.01486769962310791	1.0608499755859375	-0.00950242042541504	-0.04901959991455078	0.9302659912109374	-0.013191100120544433	-0.045360599517822266	0.9517960205078125	-0.019307600021362305	-0.041022300720214844	0.972489013671875	-0.02587660026550293	-0.031162399291992188	1.0076199951171876	-0.006180940151214599	-0.017458200454711914	0.9152949829101562	-0.011151000022888184	-0.016683700561523438	0.9391849975585937	-0.02071190071105957	-0.014651599884033204	0.9649860229492188	-0.028086599349975587	-0.010669500350952148	1.0018400268554688	-0.0013885999917984	0.008656020164489747	0.92489501953125	-0.009886280059814453	0.009159489631652832	0.94664501953125	-0.019849300384521484	0.009285340309143067	0.97002197265625	-0.024528200149536133	0.008026109695434571	1.0038499755859376	0.0008037300109863281	0.03729949951171875	0.9514420166015625	-0.00681850004196167	0.03394430160522461	0.969760009765625	-0.013430100440979004	0.030437400817871094	0.985427001953125	-0.01879080009460449	0.0243085994720459	1.0098200073242187	-0.04563320159912109	0.013034500122070313	1.0727900390625
